<svg width="88" height="72" viewBox="0 0 88 72" fill="none" xmlns="http://www.w3.org/2000/svg">
<g filter="url(#filter0_d)">
<path d="M62.6666 30.7342V17.3334C62.6666 14.392 60.2747 12 57.3332 12H17.3333C14.3919 12 12 14.3919 12 17.3334V44C12 46.9414 14.3919 49.3334 17.3334 49.3334H47.2352C48.9822 55.48 54.6341 60 61.3334 60C63.9115 60 66.4466 59.3216 68.668 58.0365C69.3047 57.668 69.5235 56.8529 69.1536 56.2149C68.7851 55.5769 67.9688 55.3568 67.332 55.7293C65.5169 56.7788 63.4426 57.3334 61.3332 57.3334C54.716 57.3334 49.3332 51.9505 49.3332 45.3334C49.3332 38.7162 54.7161 33.3334 61.3332 33.3334C67.9504 33.3334 73.3332 38.7162 73.3332 45.3334V46.6668C73.3332 48.1368 72.1366 49.3334 70.6666 49.3334C69.1966 49.3334 68 48.1368 68 46.6668V41.3334C68 40.5964 67.4036 40 66.6666 40C66.308 40 65.9858 40.1451 65.7464 40.375C64.5679 39.3249 63.0321 38.6666 61.3332 38.6666C57.6575 38.6666 54.6666 41.6575 54.6666 45.3332C54.6666 49.009 57.6575 52 61.3334 52C63.3204 52 65.0871 51.1086 66.3096 49.7248C67.2755 51.0969 68.8646 52 70.6668 52C73.6081 52 76 49.6081 76 46.6666V45.3332C76 37.6961 70.1305 31.411 62.6666 30.7342ZM17.3334 14.6666H57.3334C57.3889 14.6666 57.4354 14.695 57.4901 14.6984L38.4298 30.3438C37.7514 30.7709 36.7683 30.6823 36.3269 30.4115L17.1782 14.6981C17.2324 14.6949 17.2784 14.6666 17.3334 14.6666ZM60 30.7342C52.5361 31.411 46.6666 37.6961 46.6666 45.3334C46.6666 45.7834 46.6942 46.2269 46.7341 46.6668H17.3334C15.8634 46.6668 14.6667 45.4701 14.6667 44.0001V17.3334C14.6667 16.9557 14.7501 16.5991 14.8924 16.2734L34.7528 32.56C35.5288 33.0665 36.4207 33.3335 37.3335 33.3335C38.2111 33.3335 39.0691 33.0861 39.8244 32.6174C39.8999 32.577 39.9715 32.5289 40.0392 32.4729L59.7743 16.2731C59.9166 16.5991 60.0001 16.9557 60.0001 17.3335V30.7342H60ZM61.3334 49.3334C59.1276 49.3334 57.3334 47.5391 57.3334 45.3334C57.3334 43.1276 59.1276 41.3334 61.3334 41.3334C63.5391 41.3334 65.3334 43.1276 65.3334 45.3334C65.3334 47.5391 63.5391 49.3334 61.3334 49.3334Z" fill="#27FFCB"/>
</g>
<defs>
<filter id="filter0_d" x="0" y="-8" width="88" height="88" filterUnits="userSpaceOnUse" color-interpolation-filters="sRGB">
<feFlood flood-opacity="0" result="BackgroundImageFix"/>
<feColorMatrix in="SourceAlpha" type="matrix" values="0 0 0 0 0 0 0 0 0 0 0 0 0 0 0 0 0 0 127 0"/>
<feOffset/>
<feGaussianBlur stdDeviation="6"/>
<feColorMatrix type="matrix" values="0 0 0 0 0.152941 0 0 0 0 1 0 0 0 0 0.796078 0 0 0 1 0"/>
<feBlend mode="normal" in2="BackgroundImageFix" result="effect1_dropShadow"/>
<feBlend mode="normal" in="SourceGraphic" in2="effect1_dropShadow" result="shape"/>
</filter>
</defs>
</svg>
